<svg width="139" height="32" viewBox="0 0 139 32" fill="none" xmlns="http://www.w3.org/2000/svg">
<path fill-rule="evenodd" clip-rule="evenodd" d="M10.5668 27.6689L0 16.3619V0L19.497 0.00444652C21.8725 0.216102 26.534 1.86977 27.186 6.61824C27.9718 12.3515 24.294 14.4359 24.0275 14.587L24.0188 14.5919L22.6094 13.1538C22.728 13.0816 25.6997 11.2639 25.1034 6.90601C24.5425 2.81617 19.8261 2.16947 19.3511 2.11557H2.10436V15.5239L6.04739 19.7447L15.0413 10.9292L11.4499 7.16834L7.89735 10.7212L10.3342 13.0911L8.8614 14.6062L4.89075 10.7431L11.4836 4.14645L25.7233 19.0611C25.8485 19.2175 28.7927 22.9434 26.2924 27.9464C24.2663 32.0036 20.8498 32.0036 19.5641 32.0036C18.3848 32.0036 5.22956 31.8007 1.81957 31.7481L1.81479 31.748L1.03916 31.7361L0 31.719V18.9233L2.11189 20.8847V29.6388C5.85045 29.6976 18.4436 29.891 19.5641 29.891C20.7512 29.891 22.9602 29.891 24.4048 27.0014C26.2054 23.3961 24.3205 20.7072 24.102 20.4176L16.505 12.462L7.49437 21.2936L10.6127 24.6315L14.6621 20.5528L12.5344 18.2699L14.0703 16.8231L17.5887 20.6007L10.5668 27.6689Z" fill="white"/>
<path d="M44.5294 23.0018V8.30177H49.7899C51.2249 8.30177 52.3799 8.61677 53.2549 9.24677C54.1369 9.86977 54.5779 10.7938 54.5779 12.0188C54.5779 12.4738 54.4729 12.9043 54.2629 13.3103C54.0529 13.7163 53.7799 14.0733 53.4439 14.3813C53.1079 14.6823 52.7509 14.9133 52.3729 15.0743C53.1709 15.3263 53.8289 15.7778 54.3469 16.4288C54.8649 17.0798 55.1239 17.8743 55.1239 18.8123C55.1239 19.6383 54.9139 20.3663 54.4939 20.9963C54.0809 21.6263 53.4894 22.1198 52.7194 22.4768C51.9494 22.8268 51.0394 23.0018 49.9894 23.0018H44.5294ZM47.2594 20.9123H49.5589C50.4759 20.9123 51.1619 20.7303 51.6169 20.3663C52.0719 19.9953 52.2994 19.4423 52.2994 18.7073C52.2994 17.9863 52.0719 17.4333 51.6169 17.0483C51.1689 16.6633 50.4864 16.4708 49.5694 16.4708H47.2594V20.9123ZM47.2594 14.4968H49.3909C49.9019 14.4968 50.3464 14.4128 50.7244 14.2448C51.1024 14.0768 51.3964 13.8353 51.6064 13.5203C51.8164 13.1983 51.9214 12.8168 51.9214 12.3758C51.9214 11.7318 51.6974 11.2418 51.2494 10.9058C50.8084 10.5628 50.1749 10.3913 49.3489 10.3913H47.2594V14.4968ZM58.003 23.0018V8.30177H60.733V23.0018H58.003ZM67.162 23.0018V10.8008H63.0985V8.30177H73.966V10.8008H69.9025V23.0018H67.162ZM73.7136 23.0018L79.3521 8.30177H82.3971L88.1511 23.0018H85.0746L83.8251 19.6733H77.9136L76.7061 23.0018H73.7136ZM78.5856 17.3528H83.1321L80.8221 11.3888L78.5856 17.3528ZM90.1798 23.0018V8.30177H95.8708C96.9138 8.30177 97.8203 8.48027 98.5903 8.83727C99.3603 9.18727 99.9553 9.69127 100.375 10.3493C100.795 11.0073 101.005 11.7913 101.005 12.7013C101.005 13.4293 100.855 14.0698 100.554 14.6228C100.253 15.1758 99.8363 15.6343 99.3043 15.9983C98.7793 16.3623 98.1703 16.6178 97.4773 16.7648L101.751 23.0018H98.4748L94.6738 17.2478H92.9098V23.0018H90.1798ZM92.9098 15.0113H95.4718C96.3468 15.0113 97.0293 14.8293 97.5193 14.4653C98.0093 14.0943 98.2543 13.5553 98.2543 12.8483C98.2543 12.1133 98.0303 11.5533 97.5823 11.1683C97.1343 10.7833 96.4763 10.5908 95.6083 10.5908H92.9098V15.0113ZM110.941 23.3168C109.828 23.3168 108.795 23.1243 107.843 22.7393C106.898 22.3473 106.076 21.8048 105.376 21.1118C104.676 20.4188 104.133 19.6068 103.748 18.6758C103.363 17.7448 103.171 16.7368 103.171 15.6518C103.171 14.5598 103.363 13.5483 103.748 12.6173C104.133 11.6863 104.676 10.8743 105.376 10.1813C106.076 9.48827 106.898 8.94927 107.843 8.56427C108.795 8.17927 109.828 7.98677 110.941 7.98677C112.047 7.98677 113.072 8.18277 114.017 8.57477C114.962 8.96677 115.785 9.51277 116.485 10.2128C117.185 10.9128 117.731 11.7283 118.123 12.6593C118.515 13.5833 118.711 14.5808 118.711 15.6518C118.711 16.7368 118.515 17.7448 118.123 18.6758C117.731 19.6068 117.185 20.4188 116.485 21.1118C115.785 21.8048 114.962 22.3473 114.017 22.7393C113.072 23.1243 112.047 23.3168 110.941 23.3168ZM110.941 20.7443C111.634 20.7443 112.278 20.6253 112.873 20.3873C113.475 20.1423 113.996 19.7993 114.437 19.3583C114.885 18.9103 115.232 18.3748 115.477 17.7518C115.729 17.1218 115.855 16.4218 115.855 15.6518C115.855 14.6228 115.638 13.7268 115.204 12.9638C114.77 12.2008 114.182 11.6093 113.44 11.1893C112.698 10.7693 111.865 10.5593 110.941 10.5593C110.241 10.5593 109.593 10.6783 108.998 10.9163C108.403 11.1543 107.882 11.4973 107.434 11.9453C106.993 12.3933 106.646 12.9288 106.394 13.5518C106.149 14.1748 106.027 14.8748 106.027 15.6518C106.027 16.6808 106.24 17.5768 106.667 18.3398C107.101 19.1028 107.689 19.6943 108.431 20.1143C109.173 20.5343 110.01 20.7443 110.941 20.7443ZM128.557 23.3168C127.444 23.3168 126.411 23.1243 125.459 22.7393C124.514 22.3473 123.692 21.8048 122.992 21.1118C122.292 20.4188 121.749 19.6068 121.364 18.6758C120.979 17.7448 120.787 16.7368 120.787 15.6518C120.787 14.5598 120.979 13.5483 121.364 12.6173C121.749 11.6863 122.292 10.8743 122.992 10.1813C123.692 9.48827 124.514 8.94927 125.459 8.56427C126.411 8.17927 127.444 7.98677 128.557 7.98677C129.663 7.98677 130.688 8.18277 131.633 8.57477C132.578 8.96677 133.401 9.51277 134.101 10.2128C134.801 10.9128 135.347 11.7283 135.739 12.6593C136.131 13.5833 136.327 14.5808 136.327 15.6518C136.327 16.7368 136.131 17.7448 135.739 18.6758C135.347 19.6068 134.801 20.4188 134.101 21.1118C133.401 21.8048 132.578 22.3473 131.633 22.7393C130.688 23.1243 129.663 23.3168 128.557 23.3168ZM128.557 20.7443C129.25 20.7443 129.894 20.6253 130.489 20.3873C131.091 20.1423 131.612 19.7993 132.053 19.3583C132.501 18.9103 132.848 18.3748 133.093 17.7518C133.345 17.1218 133.471 16.4218 133.471 15.6518C133.471 14.6228 133.254 13.7268 132.82 12.9638C132.386 12.2008 131.798 11.6093 131.056 11.1893C130.314 10.7693 129.481 10.5593 128.557 10.5593C127.857 10.5593 127.209 10.6783 126.614 10.9163C126.019 11.1543 125.498 11.4973 125.05 11.9453C124.609 12.3933 124.262 12.9288 124.01 13.5518C123.765 14.1748 123.643 14.8748 123.643 15.6518C123.643 16.6808 123.856 17.5768 124.283 18.3398C124.717 19.1028 125.305 19.6943 126.047 20.1143C126.789 20.5343 127.626 20.7443 128.557 20.7443Z" fill="white"/>
</svg>
