<svg width="107" height="19" viewBox="0 0 107 19" fill="none" xmlns="http://www.w3.org/2000/svg">
<path d="M3.4467 0.0927124H0V18.8923H3.4467V0.0927124Z" fill="#111536"/>
<path d="M18.5721 9.11703C19.967 8.39131 21.2546 7.18324 21.2546 4.92716V4.87454C21.2546 3.61165 20.8254 2.59104 19.9933 1.75899C18.9214 0.684661 17.2309 0.0937805 15.0849 0.0937805H6.36523V18.8945H15.3575C19.5422 18.8945 22.3046 17.0945 22.3046 13.7421V13.6873C22.3002 11.1308 20.7718 9.86906 18.5721 9.11703ZM9.90829 3.01968H14.0557C16.1743 3.01968 17.3546 3.93286 17.3546 5.4106V5.46432C17.3546 7.18324 15.9313 8.0153 13.8138 8.0153H9.90829V3.01968ZM18.4002 13.3869C18.4002 15.0795 17.0327 15.9653 14.7794 15.9653H9.90829V10.8129H14.5386C17.14 10.8129 18.4002 11.7535 18.4002 13.3343V13.3869Z" fill="#111536"/>
<path d="M28.3937 3.77173H38.4524V0.0927124H24.29V18.8934H38.3933V15.2133H28.3937V11.2657H38.4655V7.58669H28.3937V3.77173Z" fill="#111536"/>
<path d="M48.9148 2.94845L47.0141 0.0927124H40.3232L45.5667 7.96928L48.9148 2.94845Z" fill="#111536"/>
<path d="M59.5298 0.0927124H52.84L40.3232 18.8923H47.0141L49.9265 14.5172L52.84 18.8923H59.5298L53.2714 9.49307L59.5298 0.0927124Z" fill="#111536"/>
<path d="M71.3066 0.00060978C72.0913 -0.00972763 72.8721 0.111436 73.6168 0.359084C74.2796 0.581956 74.8868 0.94499 75.3971 1.42354C75.9003 1.90341 76.2904 2.48948 76.5391 3.13918C76.8128 3.8687 76.9462 4.6435 76.9321 5.42267C76.9447 6.20365 76.8095 6.97995 76.5336 7.71055C76.2846 8.35979 75.8946 8.94544 75.3916 9.42509C74.8816 9.90403 74.2744 10.2671 73.6113 10.4895C72.8666 10.7372 72.0858 10.8584 71.3011 10.848H64.6858V18.9877H62.876V0.00060978H71.3066ZM70.9081 9.30888C72.165 9.30888 73.1832 8.98988 73.9628 8.35186C74.7424 7.71384 75.13 6.73744 75.1256 5.42267C75.1256 4.10717 74.7362 3.13187 73.9573 2.49677C73.1785 1.86168 72.1603 1.54267 70.9026 1.53975H64.6858V9.3056L70.9081 9.30888Z" fill="#111536"/>
<path d="M85.2209 0.000640869L92.6574 18.991H90.7194L88.4081 13.0855H79.7749L77.491 18.991H75.5771L83.2019 0.000640869H85.2209ZM87.7972 11.5431L84.1315 1.80507L80.3333 11.5387L87.7972 11.5431Z" fill="#111536"/>
<path d="M90.2676 0.000640869H92.3928L98.6336 9.62793L104.849 0.000640869H107L99.5084 11.1714V18.991H97.7019V11.1714L90.2676 0.000640869Z" fill="#111536"/>
</svg>
